<?xml version="1.0" encoding="utf-8"?>
<!-- Generator: Adobe Illustrator 21.0.0, SVG Export Plug-In . SVG Version: 6.00 Build 0)  -->
<svg version="1.1" id="Capa_1" xmlns="http://www.w3.org/2000/svg" xmlns:xlink="http://www.w3.org/1999/xlink" x="0px" y="0px"
	 viewBox="0 0 144.4 166.1" style="enable-background:new 0 0 144.4 166.1;" xml:space="preserve">
<style type="text/css">
	.st0{opacity:0.99;}
	.st1{fill:#595858;}
	.st2{fill:#C1272D;}
	.st3{fill:#FBB03B;}
</style>
<g>
	<g class="st0">
		<path class="st1" d="M140,90.5c-22.3,0.1-44.6,0.1-66.9,0.1c-20.6,0-41.1,0-61.7,0c-2.7,0-6.4-0.9-7.9,0.5
			c-1.8,1.8-0.6,5.5-0.5,8.4c0.2,9.1,7.5,16.3,16.5,16.3c35.7,0.1,71.4,0.1,107.1,0c6.5,0,11.2-3.2,14.5-8.8
			c2.4-4.2,1.8-8.8,2.1-13.3C143.2,91.1,142.5,90.5,140,90.5z M36.8,105.8c0.4,1.5-0.2,2.5-2.1,2.5c-2.3-0.1-4.6,0-6.9,0
			c-2,0-4,0-6,0c-0.6,0-1.4,0.2-1.8-0.1c-2.8-2.1-0.9-5.2-1.4-7.7c-0.3-1.4,0.5-2.3,2-2.3c4.7,0,9.5,0,14.2,0c0.1,0,0.2,0,0.3,0
			C38.8,99.9,36.1,103.2,36.8,105.8z M59.5,108.2c-0.7,0-1.4,0-2.1,0c-2,0-4-0.1-6,0c-2.5,0.2-3.1-0.9-3.1-3.2c0.1-7.9-0.9-7,6.8-7
			c3,0,6,0,9.1,0c1.7,0,2.5,0.7,2.6,2.5C67.2,108.2,67.3,108.2,59.5,108.2z M96.6,105.8c0.4,1.8-0.8,2.5-2.5,2.4
			c-2.2-0.1-4.4,0-6.6,0c-2,0-4,0-6,0c-0.6,0-1.4,0.2-1.8-0.1c-2.7-2.3-0.8-5.4-1.3-8.1c-0.3-1.5,0.9-2,2.3-2c4.5,0,9.1,0,13.6,0
			c0.2,0,0.4-0.1,0.6,0C98.4,99.9,96,103.2,96.6,105.8z M119.4,108.2c-0.7,0-1.4,0-2.1,0c-2.3,0-4.6,0-7,0c-0.8,0-1.8,0-2-0.9
			c-0.6-2.8-0.6-5.6,0-8.4c0.2-0.9,1.2-0.9,2-0.9c4.5,0,9.1,0,13.6,0c1.8,0,2.5,0.8,2.5,2.6C126.2,109.8,127.5,108,119.4,108.2z"/>
	</g>
	<g class="st0">
		<path class="st1" d="M5.7,25.3c22.3-0.1,44.6-0.1,66.9-0.1c20.6,0,41.1,0,61.7,0c2.7,0,6.4,0.9,7.9-0.5c1.8-1.8,0.6-5.5,0.5-8.4
			c-0.2-9.1-7.5-16.3-16.5-16.3C90.5,0,54.8,0,19.1,0c-6.5,0-11.2,3.2-14.5,8.8c-2.4,4.2-1.8,8.8-2.1,13.3
			C2.4,24.6,3.1,25.3,5.7,25.3z M108.8,10c-0.4-1.5,0.2-2.5,2.1-2.5c2.3,0.1,4.6,0,6.9,0c2,0,4,0,6,0c0.6,0,1.4-0.2,1.8,0.1
			c2.8,2.1,0.9,5.2,1.4,7.7c0.3,1.4-0.5,2.3-2,2.3c-4.7,0-9.5,0-14.2,0c-0.1,0-0.2,0-0.3,0C106.8,15.9,109.6,12.6,108.8,10z
			 M86.1,7.6c0.7,0,1.4,0,2.1,0c2,0,4,0.1,6,0c2.5-0.2,3.1,0.9,3.1,3.2c-0.1,7.9,0.9,7-6.8,7c-3,0-6,0-9.1,0c-1.7,0-2.5-0.7-2.6-2.5
			C78.4,7.6,78.4,7.6,86.1,7.6z M49.1,10c-0.4-1.8,0.8-2.5,2.5-2.4c2.2,0.1,4.4,0,6.6,0c2,0,4,0,6,0c0.6,0,1.4-0.2,1.8,0.1
			c2.7,2.3,0.8,5.4,1.3,8.1c0.3,1.5-0.9,2-2.3,2c-4.5,0-9.1,0-13.6,0c-0.2,0-0.4,0.1-0.6,0C47.3,15.9,49.6,12.6,49.1,10z M26.3,7.6
			c0.7,0,1.4,0,2.1,0c2.3,0,4.6,0,7,0c0.8,0,1.8,0,2,0.9c0.6,2.8,0.6,5.6,0,8.4c-0.2,0.9-1.2,0.9-2,0.9c-4.5,0-9.1,0-13.6,0
			c-1.8,0-2.5-0.8-2.5-2.6C19.4,6,18.2,7.8,26.3,7.6z"/>
	</g>
	<g>
		<path class="st2" d="M24.5,78.7V48.9h-0.1L19,72.5h-3.9L9.7,48.9H9.6v29.7H3.5V35.9H12l5.1,23h0.1l5-23h8.7v42.8H24.5z"/>
		<path class="st2" d="M58.2,46.1v22.4c0,6.7-4,10.8-10.5,10.8c-6.5,0-10.5-4.1-10.5-10.8V46.1c0-6.7,4-10.8,10.5-10.8
			C54.2,35.2,58.2,39.3,58.2,46.1z M43.7,46.1v22.3c0,3.2,1.4,4.9,4,4.9c2.6,0,4-1.7,4-4.9V46.1c0-3.2-1.4-4.9-4-4.9
			C45.1,41.2,43.7,42.9,43.7,46.1z"/>
		<path class="st2" d="M69.1,78.7l-7.2-42.8h6.6l4.8,32.7h0.1l4.8-32.7h6.5l-7.2,42.8H69.1z"/>
		<path class="st2" d="M89.3,78.7V35.9h6.5v42.8H89.3z"/>
		<path class="st2" d="M109.2,41.8V54h9.5v6h-9.5v12.7H121v6h-18.2V35.9H121v6H109.2z"/>
		<path class="st2" d="M143.7,44.8v1.1l-6.2,0.6V45c0-2.4-1.2-3.7-3.3-3.7c-2.1,0-3.3,1.3-3.3,3.7v0.5c0,2.5,1.1,4.6,5.4,8.3
			c5.9,5,8.1,8.6,8.1,13.7v2.1c0,6.1-3.6,9.6-10,9.6s-10-3.5-10-9.6v-2.9l6.2-0.6v3.1c0,2.7,1.2,4,3.7,4s3.7-1.3,3.7-4v-1.4
			c0-2.7-1.3-4.8-5.6-8.5c-5.9-5-8-8.6-8-13.6v-0.9c0-6.1,3.5-9.6,9.7-9.6S143.7,38.7,143.7,44.8z"/>
	</g>
	<g>
		<g>
			<path d="M11.6,134.5v23.5H7.4v-23.5H3v-3.9h13v3.9H11.6z"/>
			<path d="M22.8,134.4v7.8h6.1v3.8h-6.1v8.2h7.5v3.8H18.6v-27.5h11.7v3.8H22.8z"/>
			<path d="M44.9,136.3v0.7l-4,0.4v-1c0-1.6-0.7-2.4-2.1-2.4c-1.4,0-2.1,0.8-2.1,2.4v0.4c0,1.6,0.7,3,3.5,5.3
				c3.8,3.2,5.2,5.5,5.2,8.8v1.4c0,3.9-2.3,6.2-6.4,6.2s-6.4-2.2-6.4-6.2v-1.8l4-0.4v2c0,1.7,0.8,2.6,2.4,2.6c1.6,0,2.4-0.9,2.4-2.6
				v-0.9c0-1.7-0.8-3.1-3.6-5.5c-3.8-3.2-5.1-5.5-5.1-8.7v-0.6c0-3.9,2.2-6.2,6.2-6.2S44.9,132.4,44.9,136.3z"/>
			<path d="M54.6,134.5v23.5h-4.2v-23.5H46v-3.9h13v3.9H54.6z"/>
			<path d="M107,158.1l-0.9-6.2h-4.6l-0.9,6.2h-4.2l4.7-27.5h5.3l4.7,27.5H107z M102.1,148h3.5l-1.7-11.6h-0.1L102.1,148z"/>
			<path d="M120.2,130.6c4.5,0,6.9,2.4,6.9,6.9v2.2c0,4.5-2.4,6.9-6.9,6.9h-1.8v11.4h-4.2v-27.5H120.2z M118.4,142.8h1.7
				c2,0,2.9-1.1,2.9-3.4v-1.6c0-2.3-0.9-3.4-2.9-3.4h-1.7V142.8z"/>
			<path d="M136.2,130.6c4.5,0,6.9,2.4,6.9,6.9v2.2c0,4.5-2.4,6.9-6.9,6.9h-1.8v11.4h-4.2v-27.5H136.2z M134.4,142.8h1.7
				c2,0,2.9-1.1,2.9-3.4v-1.6c0-2.3-0.9-3.4-2.9-3.4h-1.7V142.8z"/>
		</g>
		<path class="st3" d="M75.8,131.4l-3.6,7.3l-8.1,1.2c-1.5,0.2-2,2-1,3l5.9,5.7l-1.4,8.1c-0.2,1.5,1.3,2.5,2.6,1.9l7.2-3.8l7.2,3.8
			c1.3,0.7,2.8-0.4,2.6-1.9l-1.4-8.1l5.9-5.7c1.1-1,0.5-2.8-1-3l-8.1-1.2l-3.6-7.3C78.3,130.1,76.4,130,75.8,131.4L75.8,131.4z"/>
	</g>
</g>
<g>
</g>
<g>
</g>
<g>
</g>
<g>
</g>
<g>
</g>
<g>
</g>
<g>
</g>
<g>
</g>
<g>
</g>
<g>
</g>
<g>
</g>
<g>
</g>
<g>
</g>
<g>
</g>
<g>
</g>
</svg>
