<?xml version="1.0" encoding="utf-8"?>
<!-- Generator: Adobe Illustrator 21.0.0, SVG Export Plug-In . SVG Version: 6.00 Build 0)  -->
<svg version="1.1" id="Capa_1" xmlns="http://www.w3.org/2000/svg" xmlns:xlink="http://www.w3.org/1999/xlink" x="0px" y="0px"
	 viewBox="0 0 196.8 137" style="enable-background:new 0 0 196.8 137;" xml:space="preserve">
<style type="text/css">
	.st0{fill:#FFFFFF;}
	.st1{fill:#FBB03B;}
</style>
<g>
	<g>
		<path class="st0" d="M33.3,70.9V30.3h-0.2l-7.3,32.2h-5.3l-7.3-32.2h-0.2v40.5H4.8V12.5h11.6l6.9,31.3h0.2l6.8-31.3h11.9v58.4
			H33.3z"/>
		<path class="st0" d="M79.3,26.4v30.5c0,9.2-5.4,14.8-14.3,14.8s-14.3-5.6-14.3-14.8V26.4c0-9.2,5.4-14.8,14.3-14.8
			S79.3,17.3,79.3,26.4z M59.6,26.5v30.3c0,4.3,1.9,6.7,5.4,6.7s5.4-2.3,5.4-6.7V26.5c0-4.3-1.9-6.7-5.4-6.7S59.6,22.2,59.6,26.5z"
			/>
		<path class="st0" d="M94.1,70.9l-9.8-58.4h9L99.9,57h0.2l6.5-44.5h8.8l-9.8,58.4H94.1z"/>
		<path class="st0" d="M121.7,70.9V12.5h8.8v58.4H121.7z"/>
		<path class="st0" d="M148.9,20.7v16.5h12.9v8.2h-12.9v17.3h16v8.2H140V12.5h24.8v8.2H148.9z"/>
		<path class="st0" d="M195.8,24.8v1.5l-8.5,0.8v-2.2c0-3.3-1.6-5.1-4.5-5.1c-2.9,0-4.5,1.8-4.5,5.1v0.8c0,3.4,1.5,6.3,7.4,11.3
			c8.1,6.8,11.1,11.7,11.1,18.7v2.9c0,8.3-4.9,13.1-13.7,13.1s-13.7-4.8-13.7-13.1v-3.9l8.5-0.8V58c0,3.7,1.7,5.5,5,5.5
			c3.3,0,5-1.8,5-5.5v-1.9c0-3.7-1.8-6.6-7.7-11.6c-8.1-6.8-10.8-11.7-10.8-18.5v-1.2c0-8.3,4.8-13.1,13.2-13.1
			S195.8,16.4,195.8,24.8z"/>
	</g>
	<g>
		<g>
			<path d="M15.8,94v32.1h-5.7V94h-6v-5.3h17.8V94H15.8z"/>
			<path d="M31.1,93.9v10.6h8.3v5.2h-8.3v11.1h10.3v5.2H25.4V88.7h15.9v5.2H31.1z"/>
			<path d="M61.2,96.5v1L55.7,98v-1.4c0-2.1-1-3.3-2.9-3.3c-1.9,0-2.9,1.1-2.9,3.3v0.5c0,2.2,1,4.1,4.8,7.3c5.2,4.4,7.1,7.5,7.1,12
				v1.9c0,5.3-3.2,8.4-8.8,8.4c-5.6,0-8.8-3-8.8-8.4v-2.5l5.5-0.5v2.7c0,2.4,1.1,3.5,3.2,3.5c2.1,0,3.2-1.2,3.2-3.5v-1.2
				c0-2.4-1.1-4.2-4.9-7.4c-5.2-4.4-7-7.5-7-11.9v-0.8c0-5.3,3-8.4,8.5-8.4C58.1,88.1,61.2,91.2,61.2,96.5z"/>
			<path d="M74.4,94v32.1h-5.7V94h-6v-5.3h17.8V94H74.4z"/>
			<path d="M145.8,126.1l-1.2-8.5h-6.3l-1.2,8.5h-5.7l6.5-37.4h7.2l6.5,37.4H145.8z M139.1,112.5h4.8l-2.3-15.8h-0.2L139.1,112.5z"
				/>
			<path d="M163.9,88.7c6.1,0,9.4,3.3,9.4,9.5v3c0,6.2-3.3,9.5-9.4,9.5h-2.5v15.5h-5.7V88.7H163.9z M161.4,105.3h2.3
				c2.7,0,4-1.4,4-4.6v-2.2c0-3.2-1.2-4.6-4-4.6h-2.3V105.3z"/>
			<path d="M185.6,88.7c6.1,0,9.4,3.3,9.4,9.5v3c0,6.2-3.3,9.5-9.4,9.5h-2.5v15.5h-5.7V88.7H185.6z M183.1,105.3h2.3
				c2.7,0,4-1.4,4-4.6v-2.2c0-3.2-1.2-4.6-4-4.6h-2.3V105.3z"/>
		</g>
		<path class="st1" d="M103.2,89.7l-4.9,10l-11,1.6c-2,0.3-2.8,2.7-1.3,4.1l8,7.8l-1.9,11c-0.3,2,1.8,3.5,3.5,2.5l9.9-5.2l9.9,5.2
			c1.8,0.9,3.8-0.6,3.5-2.5l-1.9-11l8-7.8c1.4-1.4,0.6-3.8-1.3-4.1l-11-1.6l-4.9-10C106.7,87.9,104.1,87.9,103.2,89.7L103.2,89.7z"
			/>
	</g>
</g>
<g>
</g>
<g>
</g>
<g>
</g>
<g>
</g>
<g>
</g>
<g>
</g>
<g>
</g>
<g>
</g>
<g>
</g>
<g>
</g>
<g>
</g>
<g>
</g>
<g>
</g>
<g>
</g>
<g>
</g>
</svg>
